<?xml version="1.0" encoding="UTF-8"?>
<!DOCTYPE svg PUBLIC "-//W3C//DTD SVG 1.1//EN" "http://www.w3.org/Graphics/SVG/1.1/DTD/svg11.dtd">
<!-- Creator: CorelDRAW 2021.5 -->
<svg xmlns="http://www.w3.org/2000/svg" xml:space="preserve" width="297mm" height="210mm" version="1.1" style="shape-rendering:geometricPrecision; text-rendering:geometricPrecision; image-rendering:optimizeQuality; fill-rule:evenodd; clip-rule:evenodd"
viewBox="0 0 29700 21000"
 xmlns:xlink="http://www.w3.org/1999/xlink"
 xmlns:xodm="http://www.corel.com/coreldraw/odm/2003">
 <defs>
  <style type="text/css">
   <![CDATA[
    .str1 {stroke:#2B2A29;stroke-width:20;stroke-miterlimit:22.9256}
    .str0 {stroke:#2B2A29;stroke-width:20;stroke-miterlimit:22.9256}
    .str2 {stroke:#6C8CD5;stroke-width:20;stroke-miterlimit:22.9256}
    .fil1 {fill:#1F1B20}
    .fil2 {fill:#3F92D2}
    .fil3 {fill:#6C8CD5}
    .fil0 {fill:black;fill-rule:nonzero}
   ]]>
  </style>
 </defs>
 <g id="Слой_x0020_1">
  <metadata id="CorelCorpID_0Corel-Layer"/>
  <g id="_1874465259168">
   <g id="_1874473941312">
    <path class="fil0" d="M16612.56 16941.94c-1711.1,0 -2590.41,-246.42 -3171.69,-409.76 -272.7,-76.63 -470.03,-132.02 -648.63,-132.02l-2355.63 0c-114.88,0 -208.19,-93.31 -208.19,-208.18l0 -4902.78c0,-114.88 93.31,-208.19 208.19,-208.19 816.05,0 1522.9,-451.3 2100.87,-1341.47 812.28,-1252.41 1290.65,-1954.69 2149.19,-3061.7 812.28,-1046.74 1262.32,-2194.98 1343.04,-2558.79l30.06 -146.18c49.88,-254.45 101.49,-517.55 525.41,-517.55 830.54,0 1279,958.78 1279,1861.54 0,557.04 -209.91,1306.53 -641.23,2291.12 -167.74,383.48 -141.62,650.67 -67.82,763.18 36.67,56.18 88.28,82.46 162.4,82.46l3304.5 -0.16c402.2,46.26 1115.82,359.72 1115.82,1223.14 0,571.99 -207.4,890.96 -402.99,1064.52 193.23,175.3 402.99,480.88 402.99,980.49 0,581.28 -385.05,947.61 -670.34,1139.11 147.44,168.69 290.64,452.56 290.64,919.76 0,664.83 -567.12,1002.52 -928.1,1150.28 143.2,259.01 171.05,564.6 99.45,984.27 -123.21,720.07 -1294.73,1026.91 -3916.94,1026.91zm-5967.77 -957.99l2147.45 0c235.73,0 467.51,64.99 761.14,147.44 559.56,156.89 1405.2,394.34 3059.34,394.34 2949.35,0 3462.33,-425.96 3506.08,-679.94 83.24,-487.49 -5.82,-697.41 -176.87,-878.05 -51.14,-54.13 -69.08,-131.55 -47.84,-202.84 21.72,-71.12 79.15,-125.72 152.01,-142.88 8.81,-2.04 895.21,-218.09 895.21,-840.6 0,-620.77 -308.11,-746.97 -321.01,-751.85 -79.47,-30.37 -134.86,-107.79 -135.8,-193.24 -0.79,-85.28 47.52,-163.65 126.99,-196.06 7.08,-2.99 709.83,-297.72 709.83,-918.03 0,-619.51 -442.64,-792.29 -446.73,-794.02 -85.29,-32.1 -139.89,-115.34 -134.86,-206.14 5.04,-90.8 67.82,-167.74 156.1,-190.72 14.16,-4.09 425.49,-133.59 425.49,-854.76 0,-713.62 -694.41,-804.73 -724,-808.19l-3279.48 1.26c-215.27,0 -396.38,-96.15 -510.78,-270.97 -179.86,-275.22 -166.96,-696.93 34.93,-1158.31 407.56,-930.92 606.14,-1625.81 606.14,-2124.16 -0.31,-599.38 -267.66,-1444.54 -862.95,-1444.54 -63.25,0 -82.45,7.87 -82.92,8.34 -2.05,11.17 -19.52,101.18 -33.68,173.25l-32.1 156.41c-87.02,391.82 -564.91,1621.73 -1420.62,2723.7 -849.41,1095.36 -1323.06,1791.04 -2128.73,3033.53 -611.96,942.26 -1364.76,1453.51 -2242.03,1522.91l0.16 4494.12 -0.47 0z"/>
    <path class="fil0" d="M10436.61 17558.94l-2267.37 0c-114.87,0 -208.18,-93.31 -208.18,-208.18l0 -7152.37c0,-114.87 93.31,-208.18 208.18,-208.18l2267.37 0c114.87,0 208.18,93.31 208.18,208.18l0 7152.37c0,114.87 -92.84,208.18 -208.18,208.18zm-2059.18 -416.37l1850.99 0 0 -6735.99 -1850.99 0 0 6735.99z"/>
    <path class="fil1 str0" d="M12792.24 15983.95c235.73,0 467.51,64.99 761.14,147.44 559.56,156.89 1405.2,394.34 3059.34,394.34 2949.35,0 3462.33,-425.96 3506.08,-679.94 83.24,-487.49 -5.82,-697.41 -176.87,-878.05 -51.14,-54.13 -69.08,-131.55 -47.84,-202.84 21.72,-71.12 79.15,-125.72 152.01,-142.88 8.81,-2.04 895.21,-218.09 895.21,-840.6 0,-620.77 -308.11,-746.97 -321.01,-751.85 -79.47,-30.37 -134.86,-107.79 -135.8,-193.24 -0.79,-85.28 47.52,-163.65 126.99,-196.06 7.08,-2.99 709.83,-297.72 709.83,-918.03 0,-619.51 -442.64,-792.29 -446.73,-794.02 -85.29,-32.1 -139.89,-115.34 -134.86,-206.14 5.04,-90.8 67.82,-167.74 156.1,-190.72 14.16,-4.09 425.49,-133.59 425.49,-854.76 0,-713.62 -694.41,-804.73 -724,-808.19l-3279.48 1.26c-215.27,0 -396.38,-96.15 -510.78,-270.97 -179.86,-275.22 -166.96,-696.93 34.93,-1158.31 407.56,-930.92 606.14,-1625.81 606.14,-2124.16 -0.31,-599.38 -267.66,-1444.54 -862.95,-1444.54 -63.25,0 -82.45,7.87 -82.92,8.34 -2.05,11.17 -19.52,101.18 -33.68,173.25l-32.1 156.41c-87.02,391.82 -564.91,1621.73 -1420.62,2723.7 -849.41,1095.36 -1323.06,1791.04 -2128.73,3033.53 -611.96,942.26 -1364.76,1453.51 -2242.03,1522.91l-0.31 4494.12 2147.45 0z"/>
    <polygon class="fil1 str0" points="10228.42,16191.98 10228.42,11289.2 10228.42,10406.58 8377.43,10406.58 8377.43,17142.57 10228.42,17142.57 "/>
    <path class="fil1 str0" d="M12792.24 16400.16l-2147.45 0 0 950.6c0,114.87 -92.84,208.18 -208.18,208.18l-2267.37 0c-114.87,0 -208.18,-93.31 -208.18,-208.18l0 -7152.37c0,-114.87 93.31,-208.18 208.18,-208.18l2267.37 0c114.87,0 208.18,93.31 208.18,208.18l0 872.55c728.56,-70.81 1364.44,-517.86 1892.69,-1331.4 812.28,-1252.41 1290.65,-1954.69 2149.19,-3061.7 812.28,-1046.74 1262.32,-2194.98 1343.04,-2558.79l30.06 -146.18c49.88,-254.45 101.49,-517.55 525.41,-517.55 830.54,0 1279,958.78 1279,1861.54 0,557.04 -209.91,1306.53 -641.23,2291.12 -167.74,383.48 -141.62,650.67 -67.82,763.18 36.67,56.18 88.28,82.46 162.4,82.46l3304.5 -0.16c402.2,46.26 1115.82,359.72 1115.82,1223.14 0,571.99 -207.4,890.96 -402.99,1064.52 193.23,175.3 402.99,480.88 402.99,980.49 0,581.28 -385.05,947.61 -670.34,1139.11 147.44,168.69 290.64,452.56 290.64,919.76 0,664.83 -567.12,1002.52 -928.1,1150.28 143.2,259.01 171.05,564.6 99.45,984.27 -123.21,720.07 -1294.73,1026.91 -3916.94,1026.91 -1711.1,0 -2590.41,-246.42 -3171.69,-409.76 -272.7,-76.63 -470.03,-132.02 -648.63,-132.02z"/>
    <path class="fil1 str0" d="M12792.24 16400.16l-2147.45 0 0 950.6c0,114.87 -92.84,208.18 -208.18,208.18l-2267.37 0c-114.87,0 -208.18,-93.31 -208.18,-208.18l0 -7152.37c0,-114.87 93.31,-208.18 208.18,-208.18l2267.37 0c114.87,0 208.18,93.31 208.18,208.18l0 872.55c728.56,-70.81 1364.44,-517.86 1892.69,-1331.4 812.28,-1252.41 1290.65,-1954.69 2149.19,-3061.7 812.28,-1046.74 1262.32,-2194.98 1343.04,-2558.79l30.06 -146.18c49.88,-254.45 101.49,-517.55 525.41,-517.55 830.54,0 1279,958.78 1279,1861.54 0,557.04 -209.91,1306.53 -641.23,2291.12 -167.74,383.48 -141.62,650.67 -67.82,763.18 36.67,56.18 88.28,82.46 162.4,82.46l3304.5 -0.16c402.2,46.26 1115.82,359.72 1115.82,1223.14 0,571.99 -207.4,890.96 -402.99,1064.52 193.23,175.3 402.99,480.88 402.99,980.49 0,581.28 -385.05,947.61 -670.34,1139.11 147.44,168.69 290.64,452.56 290.64,919.76 0,664.83 -567.12,1002.52 -928.1,1150.28 143.2,259.01 171.05,564.6 99.45,984.27 -123.21,720.07 -1294.73,1026.91 -3916.94,1026.91 -1711.1,0 -2590.41,-246.42 -3171.69,-409.76 -272.7,-76.63 -470.03,-132.02 -648.63,-132.02z"/>
   </g>
   <path class="fil2 str1" d="M10644.79 16400.16l2147.45 0c178.6,0 375.93,55.39 648.63,132.02 581.28,163.34 1460.59,409.76 3171.69,409.76 2622.21,0 3793.73,-306.84 3916.94,-1026.91 71.6,-419.67 43.75,-725.26 -99.45,-984.27 360.98,-147.76 928.1,-485.45 928.1,-1150.28 0,-467.2 -143.2,-751.07 -290.64,-919.76 285.29,-191.5 670.34,-557.83 670.34,-1139.11 0,-499.61 -209.76,-805.19 -402.99,-980.49 195.59,-173.56 402.99,-492.53 402.99,-1064.52 0,-863.42 -713.62,-1176.88 -1115.82,-1223.14l-3304.5 0.16c-74.12,0 -125.73,-26.28 -162.4,-82.46 -73.8,-112.51 -99.92,-379.7 67.82,-763.18 431.32,-984.59 641.23,-1734.08 641.23,-2291.12 0,-902.76 -448.46,-1861.54 -1279,-1861.54 -423.92,0 -475.53,263.1 -525.41,517.55l-30.06 146.18c-80.72,363.81 -530.76,1512.05 -1343.04,2558.79 -858.54,1107.01 -1336.91,1809.29 -2149.19,3061.7 -528.25,813.59 -1164.15,1260.57 -1892.69,1331.4l0 -872.55c0,-114.87 -93.31,-208.18 -208.18,-208.18l-2267.37 0c-114.87,0 -208.18,93.31 -208.18,208.18l0 7152.37c0,114.87 93.31,208.18 208.18,208.18l2267.37 0c115.34,0 208.18,-93.31 208.18,-208.18l0 -950.6z"/>
  </g>
  <path class="fil3 str2" d="M10644.8 16400.16l2147.45 0c178.6,0 375.93,55.39 648.63,132.02 581.28,163.34 1460.59,409.76 3171.69,409.76 2622.21,0 3793.73,-306.84 3916.94,-1026.91 71.6,-419.67 43.75,-725.26 -99.45,-984.27 360.98,-147.76 928.1,-485.45 928.1,-1150.28 0,-467.2 -143.2,-751.07 -290.64,-919.76 285.29,-191.5 670.34,-557.83 670.34,-1139.11 0,-499.61 -209.76,-805.19 -402.99,-980.49 195.59,-173.56 402.99,-492.53 402.99,-1064.52 0,-863.42 -713.62,-1176.88 -1115.82,-1223.14l-3304.5 0.16c-74.12,0 -125.73,-26.28 -162.4,-82.46 -73.8,-112.51 -99.92,-379.7 67.82,-763.18 431.32,-984.59 641.23,-1734.08 641.23,-2291.12 0,-902.76 -448.46,-1861.54 -1279,-1861.54 -423.92,0 -475.53,263.1 -525.41,517.55l-30.06 146.18c-80.72,363.81 -530.76,1512.05 -1343.04,2558.79 -858.54,1107.01 -1336.91,1809.29 -2149.19,3061.7 -528.25,813.59 -1164.15,1260.57 -1892.69,1331.4l0 -872.55c0,-114.87 -93.31,-208.18 -208.18,-208.18l-2267.37 0c-114.87,0 -208.18,93.31 -208.18,208.18l0 7152.37c0,114.87 93.31,208.18 208.18,208.18l2267.37 0c115.34,0 208.18,-93.31 208.18,-208.18l0 -950.6z"/>
 </g>
</svg>
